<?xml version="1.0" encoding="iso-8859-1"?>
<!-- Generator: Adobe Illustrator 18.0.0, SVG Export Plug-In . SVG Version: 6.00 Build 0)  -->
<!DOCTYPE svg PUBLIC "-//W3C//DTD SVG 1.1//EN" "http://www.w3.org/Graphics/SVG/1.1/DTD/svg11.dtd">
<svg version="1.1" id="Capa_1" xmlns="http://www.w3.org/2000/svg" xmlns:xlink="http://www.w3.org/1999/xlink" x="0px" y="0px"
	 viewBox="0 0 59.29 59.29" style="enable-background:new 0 0 59.29 59.29;" xml:space="preserve">
<g>
	<path d="M59.29,17.145H50v-4H24.693l-3-8H0v49h50v-0.873L59.29,17.145z M56.71,19.145L50,45.241V19.145H56.71z M30,48.145H6v-15h24
		V48.145z"/>
	<path d="M28,35.145H8v11h20V35.145z M18.29,37.435c0.359-0.37,1.05-0.37,1.42,0c0.18,0.189,0.29,0.439,0.29,0.71
		c0,0.26-0.11,0.52-0.29,0.71c-0.19,0.18-0.45,0.29-0.71,0.29s-0.521-0.11-0.71-0.29c-0.181-0.19-0.29-0.45-0.29-0.71
		S18.109,37.625,18.29,37.435z M11,37.145h4c0.553,0,1,0.447,1,1s-0.447,1-1,1h-4c-0.553,0-1-0.447-1-1S10.447,37.145,11,37.145z
		 M20,44.145h-9c-0.553,0-1-0.447-1-1s0.447-1,1-1h9c0.553,0,1,0.447,1,1S20.553,44.145,20,44.145z M24.71,43.855
		c-0.19,0.18-0.45,0.29-0.71,0.29c-0.271,0-0.521-0.11-0.71-0.3c-0.181-0.181-0.29-0.431-0.29-0.7c0-0.271,0.109-0.521,0.29-0.71
		c0.37-0.37,1.05-0.37,1.42,0c0.18,0.189,0.29,0.45,0.29,0.71S24.89,43.665,24.71,43.855z M25,39.145h-2c-0.553,0-1-0.447-1-1
		s0.447-1,1-1h2c0.553,0,1,0.447,1,1S25.553,39.145,25,39.145z"/>
</g>
<g>
</g>
<g>
</g>
<g>
</g>
<g>
</g>
<g>
</g>
<g>
</g>
<g>
</g>
<g>
</g>
<g>
</g>
<g>
</g>
<g>
</g>
<g>
</g>
<g>
</g>
<g>
</g>
<g>
</g>
</svg>
