<?xml version="1.0" encoding="iso-8859-1"?>
<!-- Generator: Adobe Illustrator 18.0.0, SVG Export Plug-In . SVG Version: 6.00 Build 0)  -->
<!DOCTYPE svg PUBLIC "-//W3C//DTD SVG 1.1//EN" "http://www.w3.org/Graphics/SVG/1.1/DTD/svg11.dtd">
<svg version="1.1" id="Capa_1" xmlns="http://www.w3.org/2000/svg" xmlns:xlink="http://www.w3.org/1999/xlink" x="0px" y="0px"
	 viewBox="0 0 60 60" style="enable-background:new 0 0 60 60;" xml:space="preserve">
<path d="M60,4H31V1c0-0.553-0.448-1-1-1s-1,0.447-1,1v3H0v42h27.586L15.293,58.293c-0.391,0.391-0.391,1.023,0,1.414
	C15.488,59.902,15.744,60,16,60s0.512-0.098,0.707-0.293L29,47.414V57c0,0.553,0.448,1,1,1s1-0.447,1-1v-9.586l12.293,12.293
	C43.488,59.902,43.744,60,44,60s0.512-0.098,0.707-0.293c0.391-0.391,0.391-1.023,0-1.414L32.414,46H60V4z M8,11h9
	c0.552,0,1,0.447,1,1s-0.448,1-1,1H8c-0.552,0-1-0.447-1-1S7.448,11,8,11z M8,14h15c0.552,0,1,0.447,1,1s-0.448,1-1,1H8
	c-0.552,0-1-0.447-1-1S7.448,14,8,14z M7,18c0-0.553,0.448-1,1-1h15c0.552,0,1,0.447,1,1s-0.448,1-1,1H8C7.448,19,7,18.553,7,18z
	 M49,26c0,0.553-0.447,1-1,1s-1-0.447-1-1v-4.586L34.307,34.107C34.112,34.303,33.856,34.4,33.6,34.4s-0.512-0.098-0.707-0.293
	L24.6,25.814L12.707,37.707C12.512,37.902,12.256,38,12,38s-0.512-0.098-0.707-0.293c-0.391-0.391-0.391-1.023,0-1.414l12.6-12.6
	c0.391-0.391,1.023-0.391,1.414,0l8.293,8.293L45.586,20H41c-0.552,0-1-0.447-1-1s0.448-1,1-1h7c0.13,0,0.26,0.026,0.382,0.077
	c0.245,0.101,0.44,0.296,0.541,0.541C48.974,18.74,49,18.87,49,19V26z"/>
<g>
</g>
<g>
</g>
<g>
</g>
<g>
</g>
<g>
</g>
<g>
</g>
<g>
</g>
<g>
</g>
<g>
</g>
<g>
</g>
<g>
</g>
<g>
</g>
<g>
</g>
<g>
</g>
<g>
</g>
</svg>
