<?xml version="1.0" encoding="iso-8859-1"?>
<!-- Generator: Adobe Illustrator 18.0.0, SVG Export Plug-In . SVG Version: 6.00 Build 0)  -->
<!DOCTYPE svg PUBLIC "-//W3C//DTD SVG 1.1//EN" "http://www.w3.org/Graphics/SVG/1.1/DTD/svg11.dtd">
<svg version="1.1" id="Capa_1" xmlns="http://www.w3.org/2000/svg" xmlns:xlink="http://www.w3.org/1999/xlink" x="0px" y="0px"
	 viewBox="0 0 56 56" style="enable-background:new 0 0 56 56;" xml:space="preserve">
<g>
	<path d="M20,56h16V0H20V56z M22,4h12v22H22V4z M28,39c3.309,0,6,2.691,6,6s-2.691,6-6,6s-6-2.691-6-6S24.691,39,28,39z"/>
	<path d="M38,0v56h16V0H38z M46,51c-3.309,0-6-2.691-6-6s2.691-6,6-6s6,2.691,6,6S49.309,51,46,51z M52,26H40V4h12V26z"/>
	<path d="M2,56h16V0H2V56z M4,4h12v22H4V4z M10,39c3.309,0,6,2.691,6,6s-2.691,6-6,6s-6-2.691-6-6S6.691,39,10,39z"/>
</g>
<g>
</g>
<g>
</g>
<g>
</g>
<g>
</g>
<g>
</g>
<g>
</g>
<g>
</g>
<g>
</g>
<g>
</g>
<g>
</g>
<g>
</g>
<g>
</g>
<g>
</g>
<g>
</g>
<g>
</g>
</svg>
