<?xml version="1.0" encoding="iso-8859-1"?>
<!-- Generator: Adobe Illustrator 18.0.0, SVG Export Plug-In . SVG Version: 6.00 Build 0)  -->
<!DOCTYPE svg PUBLIC "-//W3C//DTD SVG 1.1//EN" "http://www.w3.org/Graphics/SVG/1.1/DTD/svg11.dtd">
<svg version="1.1" id="Capa_1" xmlns="http://www.w3.org/2000/svg" xmlns:xlink="http://www.w3.org/1999/xlink" x="0px" y="0px"
	 viewBox="0 0 60 60" style="enable-background:new 0 0 60 60;" xml:space="preserve">
<g>
	<path d="M53.268,11.097l-0.699-0.86L41.917,20.888l0.467,0.684c1.696,2.491,2.593,5.406,2.593,8.429s-0.896,5.938-2.593,8.429
		l-0.467,0.684l10.651,10.651l0.699-0.86c4.326-5.324,6.709-12.038,6.709-18.903S57.594,16.421,53.268,11.097z"/>
	<path d="M38.406,42.407C35.915,44.104,33,45,29.977,45c-7.192,0-13.386-5.125-14.727-12.187L15.096,32H0.023l0.113,1.103
		C1.712,48.437,14.541,60,29.977,60c6.865,0,13.579-2.383,18.903-6.709l0.86-0.699L39.089,41.94L38.406,42.407z"/>
	<path d="M29.977,4c4.825,0,9.564,1.358,13.644,3.871l-5.137,5.137C35.857,11.689,32.958,11,29.977,11
		c-8.26,0-15.48,5.336-18.023,13H4.669C7.384,12.392,17.734,4,29.977,4 M29.977,0C14.541,0,1.712,11.563,0.136,26.897L0.023,28
		h15.073l0.154-0.813C16.591,20.125,22.785,15,29.977,15c3.022,0,5.937,0.896,8.429,2.593l0.684,0.467L49.741,7.408l-0.86-0.699
		C43.556,2.383,36.842,0,29.977,0L29.977,0z"/>
</g>
<g>
</g>
<g>
</g>
<g>
</g>
<g>
</g>
<g>
</g>
<g>
</g>
<g>
</g>
<g>
</g>
<g>
</g>
<g>
</g>
<g>
</g>
<g>
</g>
<g>
</g>
<g>
</g>
<g>
</g>
</svg>
