<?xml version="1.0" encoding="iso-8859-1"?>
<!-- Generator: Adobe Illustrator 18.0.0, SVG Export Plug-In . SVG Version: 6.00 Build 0)  -->
<!DOCTYPE svg PUBLIC "-//W3C//DTD SVG 1.1//EN" "http://www.w3.org/Graphics/SVG/1.1/DTD/svg11.dtd">
<svg version="1.1" id="Capa_1" xmlns="http://www.w3.org/2000/svg" xmlns:xlink="http://www.w3.org/1999/xlink" x="0px" y="0px"
	 viewBox="0 0 59.998 59.998" style="enable-background:new 0 0 59.998 59.998;" xml:space="preserve">
<g>
	<path d="M59.457,35.985c-0.695-0.969-1.55-1.866-3.074-1.866c-1.14,0-2.589,0.506-4.904,1.726l-8.623,5.272
		c-1.409,0.75-4.515,0.9-6.447,0.93c0.453-0.945,0.25-2.069-0.603-3.343c-0.791-1.18-1.868-2.118-3.118-2.759
		C34.76,34.261,36,31.754,36,28.999c0-4.962-4.037-9-9-9s-9,4.038-9,9c0,1.481,0.368,2.895,1.027,4.156
		c-0.013-0.009-0.027-0.017-0.039-0.027C15.423,30.441,9.439,30.045,7,30v-3.029H0v32.028h7v-3h13c2.04,0,4.098-0.156,6.116-0.462
		l12.963-1.971c0.472-0.006,0.95-0.062,1.376-0.158c1.194-0.168,2.335-0.738,3.302-1.65l15.181-11.823
		C60.118,38.958,60.346,37.222,59.457,35.985z M27,23.999c2.757,0,5,2.243,5,5s-2.243,5-5,5s-5-2.243-5-5S24.243,23.999,27,23.999z
		 M57.686,38.376L42.489,50.21l-0.077,0.067c-0.67,0.641-1.443,1.039-2.334,1.168c-0.364,0.081-0.727,0.122-1.078,0.122
		l-13.185,1.993c-1.919,0.292-3.876,0.44-5.815,0.44H7v-22c3.646,0.066,8.239,0.808,10.784,2.726
		c1.336,1.008,2.937,1.692,4.645,2.02l0.015,0.009l0.19,0.033c0.01,0.002,0.019,0.002,0.029,0.004
		c0.328,0.056,0.66,0.101,0.995,0.13c0.011,0.001,0.022,0.003,0.032,0.004c0.34,0.029,0.682,0.046,1.027,0.046h3.9
		c0.55,0,1.1,0.065,1.634,0.193l0.064,0.016c1.573,0.39,2.94,1.315,3.827,2.638c0.412,0.615,0.582,1.13,0.455,1.377
		c-0.189,0.368-1.155,0.763-2.841,0.815c-0.382-0.006-0.731-0.01-1.04-0.01H21c-3.131,0-5,1.495-5,4c0,0.552,0.447,1,1,1
		s1-0.448,1-1c0-0.495,0-2,3-2h9.69c0.083,0.005,0.315,0.017,0.649,0.017c0.131,0,0.276-0.002,0.387-0.006l0.713,0.012
		c0.84,0.016,1.79,0.033,2.779,0.033c4.407,0,7.052-0.361,8.629-1.202l8.618-5.27c1.901-0.999,3.146-1.464,3.918-1.464
		c0.49,0,0.815,0.149,1.449,1.032C58.11,37.539,58.036,38.085,57.686,38.376z"/>
	<path d="M42,18.999c4.963,0,9-4.038,9-9s-4.037-9-9-9s-9,4.038-9,9S37.037,18.999,42,18.999z M42,4.999c2.757,0,5,2.243,5,5
		s-2.243,5-5,5s-5-2.243-5-5S39.243,4.999,42,4.999z"/>
</g>
<g>
</g>
<g>
</g>
<g>
</g>
<g>
</g>
<g>
</g>
<g>
</g>
<g>
</g>
<g>
</g>
<g>
</g>
<g>
</g>
<g>
</g>
<g>
</g>
<g>
</g>
<g>
</g>
<g>
</g>
</svg>
