<?xml version="1.0" encoding="iso-8859-1"?>
<!-- Generator: Adobe Illustrator 18.0.0, SVG Export Plug-In . SVG Version: 6.00 Build 0)  -->
<!DOCTYPE svg PUBLIC "-//W3C//DTD SVG 1.1//EN" "http://www.w3.org/Graphics/SVG/1.1/DTD/svg11.dtd">
<svg version="1.1" id="Capa_1" xmlns="http://www.w3.org/2000/svg" xmlns:xlink="http://www.w3.org/1999/xlink" x="0px" y="0px"
	 viewBox="0 0 60 60" style="enable-background:new 0 0 60 60;" xml:space="preserve">
<g>
	<path d="M0,4v48h2v4h10v-4h36v4h10v-4h2v-8v-6V18v-6V4H0z M56,14h2v2h-2h-4v-2H56z M52,40h4h2v2h-2h-4V40z M58,38h-2V18h2V38z
		 M56,12v-1.992C56,8.9,55.1,8,53.992,8H6.008C4.901,8,4,8.9,4,10.008v35.984C4,47.1,4.901,48,6.008,48h47.984
		C55.1,48,56,47.1,56,45.992V44h2v6H48H12H2V6h56v6H56z M47,35c-0.552,0-1-0.447-1-1v-1c0-0.553,0.448-1,1-1c0.553,0,1,0.447,1,1v1
		C48,34.553,47.553,35,47,35z M48,37v1c0,0.553-0.447,1-1,1c-0.552,0-1-0.447-1-1v-1c0-0.553,0.448-1,1-1C47.553,36,48,36.447,48,37
		z M47,31c-0.552,0-1-0.447-1-1v-1c0-0.553,0.448-1,1-1c0.553,0,1,0.447,1,1v1C48,30.553,47.553,31,47,31z M35,25v-6h14v6H35z
		 M42,35c-0.552,0-1-0.447-1-1v-1c0-0.553,0.448-1,1-1s1,0.447,1,1v1C43,34.553,42.552,35,42,35z M43,37v1c0,0.553-0.448,1-1,1
		s-1-0.447-1-1v-1c0-0.553,0.448-1,1-1S43,36.447,43,37z M42,31c-0.552,0-1-0.447-1-1v-1c0-0.553,0.448-1,1-1s1,0.447,1,1v1
		C43,30.553,42.552,31,42,31z M37,35c-0.552,0-1-0.447-1-1v-1c0-0.553,0.448-1,1-1s1,0.447,1,1v1C38,34.553,37.552,35,37,35z M38,37
		v1c0,0.553-0.448,1-1,1s-1-0.447-1-1v-1c0-0.553,0.448-1,1-1S38,36.447,38,37z M37,31c-0.552,0-1-0.447-1-1v-1c0-0.553,0.448-1,1-1
		s1,0.447,1,1v1C38,30.553,37.552,31,37,31z M28.485,35.071c0.391,0.391,0.391,1.023,0,1.414c-0.195,0.195-0.451,0.293-0.707,0.293
		s-0.512-0.098-0.707-0.293l-2.887-2.887C23.269,34.284,22.183,34.75,21,34.92V39c0,0.553-0.448,1-1,1s-1-0.447-1-1v-4.08
		c-1.183-0.17-2.269-0.636-3.185-1.322l-2.887,2.887c-0.195,0.195-0.451,0.293-0.707,0.293s-0.512-0.098-0.707-0.293
		c-0.391-0.391-0.391-1.023,0-1.414l2.887-2.887C13.716,31.269,13.25,30.183,13.08,29H9c-0.552,0-1-0.447-1-1s0.448-1,1-1h4.08
		c0.17-1.183,0.636-2.269,1.322-3.184l-2.887-2.887c-0.391-0.391-0.391-1.023,0-1.414s1.023-0.391,1.414,0l2.887,2.887
		c0.915-0.686,2.001-1.152,3.185-1.322V17c0-0.553,0.448-1,1-1s1,0.447,1,1v4.08c1.183,0.17,2.269,0.636,3.185,1.322l2.887-2.887
		c0.391-0.391,1.023-0.391,1.414,0s0.391,1.023,0,1.414l-2.887,2.887c0.686,0.916,1.151,2.001,1.322,3.184H31c0.552,0,1,0.447,1,1
		s-0.448,1-1,1h-4.08c-0.17,1.183-0.636,2.269-1.322,3.184L28.485,35.071z"/>
	<rect x="37" y="21" width="10" height="2"/>
	<path d="M20,23c-2.757,0-5,2.243-5,5s2.243,5,5,5s5-2.243,5-5S22.757,23,20,23z M20,30c-1.105,0-2-0.896-2-2c0-1.105,0.895-2,2-2
		s2,0.895,2,2C22,29.104,21.105,30,20,30z"/>
</g>
<g>
</g>
<g>
</g>
<g>
</g>
<g>
</g>
<g>
</g>
<g>
</g>
<g>
</g>
<g>
</g>
<g>
</g>
<g>
</g>
<g>
</g>
<g>
</g>
<g>
</g>
<g>
</g>
<g>
</g>
</svg>
