<svg id="Layer_1" data-name="Layer 1" xmlns="http://www.w3.org/2000/svg" viewBox="0 0 32 32"><defs><style>.cls-1{fill:#747987;}</style></defs><path class="cls-1" d="M11.41,10.93A4.59,4.59,0,1,0,16,6.33,4.6,4.6,0,0,0,11.41,10.93Zm7.18,0A2.59,2.59,0,1,1,16,8.33,2.59,2.59,0,0,1,18.59,10.93Z"/><path class="cls-1" d="M19.59,17.12H12.41A5.41,5.41,0,0,0,7,22.53V23a2.63,2.63,0,0,0,2.62,2.63H22.38A2.63,2.63,0,0,0,25,23v-.51A5.41,5.41,0,0,0,19.59,17.12ZM23,23a.63.63,0,0,1-.62.63H9.62A.63.63,0,0,1,9,23v-.51a3.41,3.41,0,0,1,3.41-3.41h7.18A3.41,3.41,0,0,1,23,22.53Z"/></svg>