<svg id="Layer_1" data-name="Layer 1" xmlns="http://www.w3.org/2000/svg" viewBox="0 0 32 32"><defs><style>.cls-1{fill:#747987;}</style></defs><path class="cls-1" d="M21.22,10.26a5.25,5.25,0,0,0-10.47.55v1a4.45,4.45,0,0,0-3.21,4.25V22A4.46,4.46,0,0,0,12,26.44h8A4.46,4.46,0,0,0,24.46,22V16.08a4.45,4.45,0,0,0-3.21-4.25v-1A4.93,4.93,0,0,0,21.22,10.26ZM16,7.56a3.24,3.24,0,0,1,3.23,2.91c0,.11,0,.22,0,.34v.82h-6.5v-.82A3.26,3.26,0,0,1,16,7.56Zm6.46,8.52V22A2.45,2.45,0,0,1,20,24.44H12A2.45,2.45,0,0,1,9.54,22V16.08A2.45,2.45,0,0,1,12,13.63h8A2.45,2.45,0,0,1,22.46,16.08Z"/><path class="cls-1" d="M16,16.43a1.65,1.65,0,0,0-1.65,1.65A1.68,1.68,0,0,0,15,19.4v1a1,1,0,0,0,2,0v-1a1.65,1.65,0,0,0-1-3Z"/></svg>