<?xml version="1.0" encoding="UTF-8"?>
<svg xmlns="http://www.w3.org/2000/svg" xmlns:xlink="http://www.w3.org/1999/xlink" width="20pt" height="20pt" viewBox="0 0 20 20" version="1.1">
<g id="surface1">
<path style=" stroke:none;fill-rule:nonzero;fill:rgb(0%,0%,0%);fill-opacity:1;" d="M 19.207031 18.074219 L 14.484375 13.160156 C 15.699219 11.71875 16.363281 9.902344 16.363281 8.011719 C 16.363281 3.59375 12.769531 0 8.351562 0 C 3.9375 0 0.34375 3.59375 0.34375 8.011719 C 0.34375 12.429688 3.9375 16.023438 8.351562 16.023438 C 10.011719 16.023438 11.589844 15.523438 12.941406 14.574219 L 17.703125 19.523438 C 17.902344 19.726562 18.167969 19.839844 18.457031 19.839844 C 18.726562 19.839844 18.984375 19.738281 19.179688 19.550781 C 19.59375 19.148438 19.605469 18.488281 19.207031 18.074219 Z M 8.351562 2.089844 C 11.621094 2.089844 14.273438 4.746094 14.273438 8.011719 C 14.273438 11.277344 11.621094 13.933594 8.351562 13.933594 C 5.089844 13.933594 2.433594 11.277344 2.433594 8.011719 C 2.433594 4.746094 5.089844 2.089844 8.351562 2.089844 Z M 8.351562 2.089844 "/>
</g>
</svg>
